<?xml version="1.0" encoding="UTF-8"?>
<svg width="50px" height="70px" viewBox="0 0 50 70" version="1.1" xmlns="http://www.w3.org/2000/svg" xmlns:xlink="http://www.w3.org/1999/xlink">
    <!-- Generator: Sketch 56.2 (81672) - https://sketch.com -->
    <title>down</title>
    <desc>Created with Sketch.</desc>
    <g id="Page-1" stroke="none" stroke-width="1" fill="none" fill-rule="evenodd">
        <path d="M58.15,38.2 C59.05,37.3 59.5,36.2333333 59.5,35 C59.5,33.7666667 59.05,32.7166667 58.15,31.85 L38.15,11.85 C37.2833333,10.95 36.2333333,10.5 35,10.5 C33.7666667,10.5 32.7,10.95 31.8,11.85 C30.9333333,12.7166667 30.5,13.7666667 30.5,15 C30.5,16.2333333 30.9333333,17.3 31.8,18.2 L44.15,30.5 L-5,30.5 C-6.23333333,30.5 -7.3,30.95 -8.2,31.85 C-9.06666667,32.7166667 -9.5,33.7666667 -9.5,35 C-9.5,36.2333333 -9.06666667,37.3 -8.2,38.2 C-7.3,39.0666667 -6.23333333,39.5 -5,39.5 L44.15,39.5 L31.8,51.85 C30.9333333,52.7166667 30.5,53.7666667 30.5,55 C30.5,56.2333333 30.9333333,57.3 31.8,58.2 C32.7,59.0666667 33.7666667,59.5 35,59.5 C36.2333333,59.5 37.2833333,59.0666667 38.15,58.2 L58.15,38.2 Z" id="down" fill="#CF5151" fill-rule="nonzero" transform="translate(25.000000, 35.000000) rotate(90.000000) translate(-25.000000, -35.000000) "></path>
    </g>
</svg>