<?xml version="1.0" encoding="UTF-8"?>
<svg width="107px" height="69px" viewBox="0 0 107 69" version="1.1" xmlns="http://www.w3.org/2000/svg" xmlns:xlink="http://www.w3.org/1999/xlink">
    <!-- Generator: Sketch 56.2 (81672) - https://sketch.com -->
    <title>standby</title>
    <desc>Created with Sketch.</desc>
    <g id="Page-1" stroke="none" stroke-width="1" fill="none" fill-rule="evenodd">
        <g id="standby" fill="#BBC1BC" fill-rule="nonzero">
            <path d="M105.65,47.7 C106.55,46.8 107,45.7333333 107,44.5 C107,43.2666667 106.55,42.2166667 105.65,41.35 L85.65,21.35 C84.7833333,20.45 83.7333333,20 82.5,20 C81.2666667,20 80.2,20.45 79.3,21.35 C78.4333333,22.2166667 78,23.2666667 78,24.5 C78,25.7333333 78.4333333,26.8 79.3,27.7 L91.65,40 L42.5,40 C41.2666667,40 40.2,40.45 39.3,41.35 C38.4333333,42.2166667 38,43.2666667 38,44.5 C38,45.7333333 38.4333333,46.8 39.3,47.7 C40.2,48.5666667 41.2666667,49 42.5,49 L91.65,49 L79.3,61.35 C78.4333333,62.2166667 78,63.2666667 78,64.5 C78,65.7333333 78.4333333,66.8 79.3,67.7 C80.2,68.5666667 81.2666667,69 82.5,69 C83.7333333,69 84.7833333,68.5666667 85.65,67.7 L105.65,47.7 Z" id="Path-Copy"></path>
            <path d="M67.65,27.7 C68.55,26.8 69,25.7333333 69,24.5 C69,23.2666667 68.55,22.2166667 67.65,21.35 L47.65,1.35 C46.7833333,0.45 45.7333333,0 44.5,0 C43.2666667,0 42.2,0.45 41.3,1.35 C40.4333333,2.21666667 40,3.26666667 40,4.5 C40,5.73333333 40.4333333,6.8 41.3,7.7 L53.65,20 L4.5,20 C3.26666667,20 2.2,20.45 1.3,21.35 C0.433333333,22.2166667 0,23.2666667 0,24.5 C0,25.7333333 0.433333333,26.8 1.3,27.7 C2.2,28.5666667 3.26666667,29 4.5,29 L53.65,29 L41.3,41.35 C40.4333333,42.2166667 40,43.2666667 40,44.5 C40,45.7333333 40.4333333,46.8 41.3,47.7 C42.2,48.5666667 43.2666667,49 44.5,49 C45.7333333,49 46.7833333,48.5666667 47.65,47.7 L67.65,27.7 Z" id="Path-Copy-2" transform="translate(34.500000, 24.500000) scale(-1, 1) translate(-34.500000, -24.500000) "></path>
        </g>
    </g>
</svg>