<?xml version="1.0" encoding="UTF-8"?>
<svg width="49px" height="69px" viewBox="0 0 49 69" version="1.1" xmlns="http://www.w3.org/2000/svg" xmlns:xlink="http://www.w3.org/1999/xlink">
    <!-- Generator: Sketch 56.2 (81672) - https://sketch.com -->
    <title>up</title>
    <desc>Created with Sketch.</desc>
    <g id="Page-1" stroke="none" stroke-width="1" fill="none" fill-rule="evenodd">
        <path d="M57.65,37.7 C58.55,36.8 59,35.7333333 59,34.5 C59,33.2666667 58.55,32.2166667 57.65,31.35 L37.65,11.35 C36.7833333,10.45 35.7333333,10 34.5,10 C33.2666667,10 32.2,10.45 31.3,11.35 C30.4333333,12.2166667 30,13.2666667 30,14.5 C30,15.7333333 30.4333333,16.8 31.3,17.7 L43.65,30 L-5.5,30 C-6.73333333,30 -7.8,30.45 -8.7,31.35 C-9.56666667,32.2166667 -10,33.2666667 -10,34.5 C-10,35.7333333 -9.56666667,36.8 -8.7,37.7 C-7.8,38.5666667 -6.73333333,39 -5.5,39 L43.65,39 L31.3,51.35 C30.4333333,52.2166667 30,53.2666667 30,54.5 C30,55.7333333 30.4333333,56.8 31.3,57.7 C32.2,58.5666667 33.2666667,59 34.5,59 C35.7333333,59 36.7833333,58.5666667 37.65,57.7 L57.65,37.7 Z" id="up" fill="#68BE78" fill-rule="nonzero" transform="translate(24.500000, 34.500000) rotate(-90.000000) translate(-24.500000, -34.500000) "></path>
    </g>
</svg>